<?xml version="1.0" encoding="UTF-8"?>
<svg width="102px" height="102px" viewBox="0 0 102 102" version="1.1" xmlns="http://www.w3.org/2000/svg" xmlns:xlink="http://www.w3.org/1999/xlink">
    <title>greenbatteryapp-macos</title>
    <g id="Page-1" stroke="none" stroke-width="1" fill="none" fill-rule="evenodd">
        <g id="original.battery.100.symbol" transform="translate(-1425.000000, -1371.000000)" fill-rule="nonzero">
            <g id="Notes">
                <rect id="artboard" x="0" y="0" width="3300" height="2200"></rect>
            </g>
            <g id="Symbols" transform="translate(1438.000000, 575.691400)">
                <g id="battery1" transform="translate(68.340877, 846.452845) rotate(270.000000) translate(-68.340877, -846.452845) translate(47.771541, 836.507135)">
                    <path d="M7.67287802,19.604833 L32.7964327,19.604833 C34.4431886,19.604833 35.7415916,19.4867985 36.691642,19.2507296 C37.6416923,19.0146883 38.4263003,18.5931484 39.045466,17.98611 C39.6790442,17.3925811 40.115458,16.6439151 40.3547073,15.7401123 C40.5939566,14.8363094 40.7135813,13.5885282 40.7135813,11.9967688 L40.7135813,8.23316127 C40.7135813,6.64140184 40.5939566,5.39362069 40.3547073,4.48981782 C40.115458,3.58601495 39.6790442,2.83060814 39.045466,2.22359739 C38.4122336,1.63004078 37.6241089,1.21185756 36.6810919,0.969047737 C35.738075,0.726237912 34.4431886,0.604833 32.7964327,0.604833 L7.46174772,0.604833 C5.92761202,0.604833 4.69255236,0.729622165 3.75656874,0.979200497 C2.82058512,1.2287512 2.04295282,1.65029105 1.42367186,2.24382004 C0.804390897,2.86434017 0.364546911,3.61637654 0.1041399,4.49992914 C-0.15623252,5.38350937 -0.28641873,6.56048365 -0.28641873,8.03085198 L-0.28641873,11.9967688 C-0.28641873,13.5885282 -0.159749197,14.8363094 0.0935898707,15.7401123 C0.346934703,16.6439151 0.783262013,17.3925811 1.4025718,17.98611 C2.03591947,18.5931484 2.82410179,19.0146883 3.76711877,19.2507296 C4.71013574,19.4867985 6.01205549,19.604833 7.67287802,19.604833 Z M7.25066066,18.7145395 C6.05429885,18.7145395 5.03035508,18.5998755 4.17882934,18.3705474 C3.32730361,18.1412194 2.64114814,17.7770046 2.12036294,17.2779032 C1.61367328,16.7922836 1.24422047,16.1481565 1.01200452,15.3455221 C0.77975975,14.5428877 0.663637363,13.5615233 0.663637363,12.4014288 L0.663637363,8.0105879 C0.663637363,6.78305702 0.77975975,5.7544788 1.01200452,4.92485324 C1.24422047,4.09525531 1.60663993,3.43090564 2.09926288,2.93180423 C2.62001926,2.41919343 3.3237581,2.05496488 4.21047943,1.83911858 C5.09720076,1.6232999 6.1739235,1.51539056 7.44064766,1.51539056 L33.2186934,1.51539056 C34.4150263,1.51539056 35.435439,1.63005459 36.2799314,1.85938266 C37.1244238,2.08871072 37.8000148,2.45292546 38.3067045,2.95202687 C38.8274608,3.45112828 39.2040047,4.09862575 39.4363359,4.89451928 C39.6683789,5.69041281 39.7844004,6.6684068 39.7844004,7.82850125 L39.7844004,12.4014288 C39.7844004,13.5615233 39.6647757,14.5428877 39.4255264,15.3455221 C39.1862771,16.1481565 38.8133365,16.7922836 38.3067045,17.2779032 C37.8000148,17.790514 37.1244238,18.1580992 36.2799314,18.3806587 C35.435439,18.6032459 34.4150263,18.7145395 33.2186934,18.7145395 L7.25066066,18.7145395 Z" id="Shape" fill="#FFFFFF"></path>
                    <path d="M6.99931434,17.604833 L33.4278482,17.604833 C35.496486,17.604833 36.8874645,17.2531138 37.6007838,16.5496754 C38.3426488,15.8324236 38.7135813,14.4807016 38.7135813,12.4945094 L38.7135813,7.71519898 C38.7135813,6.68071915 38.624409,5.83934447 38.4460646,5.19107496 C38.2677494,4.5427772 37.9931182,4.03242986 37.6221711,3.66003294 C36.866048,2.95656631 35.4679403,2.604833 33.4278482,2.604833 L7.19188777,2.604833 C6.02204289,2.604833 5.08402534,2.69104671 4.37783511,2.86347414 C3.67164488,3.03587333 3.14736365,3.30139293 2.8049914,3.66003294 C2.43404431,4.03242986 2.15941316,4.55656236 1.98109793,5.23243043 C1.80275349,5.9082985 1.71358127,6.80485616 1.71358127,7.92210343 L1.71358127,12.4945094 C1.71358127,13.5427744 1.80275349,14.3910416 1.98109793,15.0393111 C2.15941316,15.6876089 2.43404431,16.1910637 2.8049914,16.5496754 C3.56111457,17.2531138 4.95922222,17.604833 6.99931434,17.604833 Z" id="Path" fill="#15E012"></path>
                </g>
                <g id="battery2" transform="translate(9.500000, 846.808600) rotate(270.000000) translate(-9.500000, -846.808600) translate(-11.000000, 837.308600)" fill="#C18E00">
                    <path d="M7.95929675,19 L33.0828515,19 C34.7296073,19 36.0280104,18.8819655 36.9780607,18.6458966 C37.928111,18.4098553 38.712719,17.9883154 39.3318847,17.381277 C39.965463,16.7877481 40.4018767,16.0390821 40.641126,15.1352793 C40.8803753,14.2314764 41,12.9836952 41,11.3919358 L41,7.62832827 C41,6.03656884 40.8803753,4.78878769 40.641126,3.88498482 C40.4018767,2.98118195 39.965463,2.22577514 39.3318847,1.61876439 C38.6986523,1.02520778 37.9105277,0.607024561 36.9675107,0.364214737 C36.0244937,0.121404912 34.7296073,1.72647485e-13 33.0828515,1.72647485e-13 L7.74816645,1.72647485e-13 C6.21403075,1.72647485e-13 4.97897109,0.124789166 4.04298747,0.374367497 C3.10700385,0.623918202 2.32937155,1.04545805 1.71009059,1.63898704 C1.09080963,2.25950717 0.650965641,3.01154354 0.390558631,3.89509614 C0.13018621,4.77867637 0,5.95565065 0,7.42601898 L0,11.3919358 C0,12.9836952 0.126669534,14.2314764 0.380008601,15.1352793 C0.633353434,16.0390821 1.06968074,16.7877481 1.68899053,17.381277 C2.3223382,17.9883154 3.11052052,18.4098553 4.0535375,18.6458966 C4.99655447,18.8819655 6.29847423,19 7.95929675,19 Z M7.53707939,18.1097065 C6.34071758,18.1097065 5.31677381,17.9950425 4.46524807,17.7657144 C3.61372234,17.5363864 2.92756687,17.1721716 2.40678167,16.6730702 C1.90009201,16.1874506 1.5306392,15.5433235 1.29842325,14.7406891 C1.06617848,13.9380547 0.950056093,12.9566903 0.950056093,11.7965958 L0.950056093,7.4057549 C0.950056093,6.17822402 1.06617848,5.1496458 1.29842325,4.32002024 C1.5306392,3.49042231 1.89305866,2.82607264 2.38568161,2.32697123 C2.90643799,1.81436043 3.61017683,1.45013188 4.49689816,1.23428558 C5.38361949,1.0184669 6.46034223,0.910557562 7.72706639,0.910557562 L33.5051121,0.910557562 C34.7014451,0.910557562 35.7218577,1.02522159 36.5663501,1.25454966 C37.4108425,1.48387772 38.0864335,1.84809246 38.5931232,2.34719387 C39.1138796,2.84629528 39.4904234,3.49379275 39.7227546,4.28968628 C39.9547976,5.08557981 40.0708191,6.0635738 40.0708191,7.22366825 L40.0708191,11.7965958 C40.0708191,12.9566903 39.9511945,13.9380547 39.7119452,14.7406891 C39.4726959,15.5433235 39.0997552,16.1874506 38.5931232,16.6730702 C38.0864335,17.185681 37.4108425,17.5532662 36.5663501,17.7758257 C35.7218577,17.9984129 34.7014451,18.1097065 33.5051121,18.1097065 L7.53707939,18.1097065 Z" id="Shape"></path>
                    <path d="M2.71428825,17 L6.28571175,17 C6.56525739,17 6.75322746,16.6482808 6.84962197,15.9448424 C6.94987399,15.2275906 7,13.8758686 7,11.8896764 L7,7.11036598 C7,6.07588615 6.9879497,5.23451147 6.9638491,4.58624196 C6.93975245,3.9379442 6.90264013,3.42759686 6.85251214,3.05519994 C6.75033334,2.35173331 6.56139987,2 6.28571175,2 L2.74031169,2 C2.58222454,2 2.45546542,2.08621372 2.3600343,2.25864115 C2.26460319,2.43104033 2.19375438,2.69655993 2.14748786,3.05519994 C2.09735987,3.42759686 2.06024755,3.95172936 2.0361509,4.62759743 C2.0120503,5.3034655 2,6.20002316 2,7.31727043 L2,11.8896764 C2,12.9379414 2.0120503,13.7862086 2.0361509,14.4344781 C2.06024755,15.0827759 2.09735987,15.5862307 2.14748786,15.9448424 C2.24966666,16.6482808 2.43860013,17 2.71428825,17 Z" id="Path"></path>
                </g>
                <g id="battery3" transform="translate(38.647461, 846.408209) rotate(270.000000) translate(-38.647461, -846.408209) translate(18.078125, 836.447272)">
                    <path d="M7.62824207,19.3134766 L32.7517968,19.3134766 C34.3985526,19.3134766 35.6969557,19.1954421 36.647006,18.9593731 C37.5970563,18.7233318 38.3816643,18.301792 39.00083,17.6947536 C39.6344083,17.1012246 40.0708221,16.3525587 40.3100714,15.4487558 C40.5493207,14.544953 40.6689453,13.2971718 40.6689453,11.7054124 L40.6689453,7.94180484 C40.6689453,6.3500454 40.5493207,5.10226425 40.3100714,4.19846138 C40.0708221,3.29465851 39.6344083,2.53925171 39.00083,1.93224096 C38.3675976,1.33868434 37.579473,0.920501124 36.636456,0.677691299 C35.693439,0.434881475 34.3985526,0.313476563 32.7517968,0.313476563 L7.41711177,0.313476563 C5.88297606,0.313476563 4.6479164,0.438265728 3.71193278,0.68784406 C2.77594916,0.937394765 1.99831687,1.35893461 1.3790359,1.9524636 C0.75975494,2.57298373 0.319910954,3.3250201 0.0595039431,4.2085727 C-0.200868477,5.09215293 -0.331054688,6.26912721 -0.331054688,7.73949555 L-0.331054688,11.7054124 C-0.331054688,13.2971718 -0.204385154,14.544953 0.0489539137,15.4487558 C0.302298746,16.3525587 0.738626056,17.1012246 1.35793584,17.6947536 C1.99128351,18.301792 2.77946583,18.7233318 3.72248281,18.9593731 C4.66549979,19.1954421 5.96741954,19.3134766 7.62824207,19.3134766 Z M7.2060247,18.4231831 C6.00966289,18.4231831 4.98571912,18.308519 4.13419338,18.079191 C3.28266765,17.8498629 2.59651218,17.4856482 2.07572699,16.9865468 C1.56903732,16.5009271 1.19958451,15.8568001 0.967368566,15.0541657 C0.735123792,14.2515313 0.619001406,13.2701668 0.619001406,12.1100724 L0.619001406,7.71923147 C0.619001406,6.49170058 0.735123792,5.46312236 0.967368566,4.6334968 C1.19958451,3.80389887 1.56200397,3.1395492 2.05462693,2.64044779 C2.5753833,2.12783699 3.27912215,1.76360844 4.16584347,1.54776214 C5.0525648,1.33194346 6.12928754,1.22403412 7.39601171,1.22403412 L33.1740574,1.22403412 C34.3703904,1.22403412 35.3908031,1.33869816 36.2352954,1.56802622 C37.0797878,1.79735428 37.7553789,2.16156902 38.2620685,2.66067043 C38.7828249,3.15977184 39.1593687,3.80726931 39.3916999,4.60316284 C39.6237429,5.39905637 39.7397644,6.37705036 39.7397644,7.53714482 L39.7397644,12.1100724 C39.7397644,13.2701668 39.6201398,14.2515313 39.3808905,15.0541657 C39.1416412,15.8568001 38.7687005,16.5009271 38.2620685,16.9865468 C37.7553789,17.4991576 37.0797878,17.8667427 36.2352954,18.0893023 C35.3908031,18.3118895 34.3703904,18.4231831 33.1740574,18.4231831 L7.2060247,18.4231831 Z" id="Shape" fill="#8A8A8E"></path>
                    <path d="M4.38324067,17.3134766 L17.95465,17.3134766 C19.0169234,17.3134766 19.7312097,16.9617574 20.0975088,16.258319 C20.4784665,15.5410672 20.6689453,14.1893452 20.6689453,12.203153 L20.6689453,7.42384255 C20.6689453,6.38936271 20.6231542,5.54798804 20.5315719,4.89971853 C20.4400046,4.25142077 20.2989778,3.74107343 20.1084915,3.3686765 C19.720212,2.66520988 19.0022648,2.31347656 17.95465,2.31347656 L4.48212973,2.31347656 C3.88139858,2.31347656 3.39971389,2.39969028 3.03707566,2.57211771 C2.67443744,2.74451689 2.40521194,3.01003649 2.22939917,3.3686765 C2.03891282,3.74107343 1.89788601,4.26520592 1.80631873,4.94107399 C1.71473645,5.61694206 1.66894531,6.51349973 1.66894531,7.63074699 L1.66894531,12.203153 C1.66894531,13.2514179 1.71473645,14.0996852 1.80631873,14.7479547 C1.89788601,15.3962525 2.03891282,15.8997072 2.22939917,16.258319 C2.61767863,16.9617574 3.3356258,17.3134766 4.38324067,17.3134766 Z" id="Path" fill="#D0D0D0"></path>
                </g>
            </g>
        </g>
    </g>
</svg>